<svg width="75" height="82" viewBox="0 0 75 82" fill="none" xmlns="http://www.w3.org/2000/svg">
<path d="M75 81V29.6478C75 29.3391 74.8575 29.0478 74.6138 28.8584L38.1138 0.477295C37.7528 0.196541 37.2472 0.196543 36.8862 0.477297L0.386165 28.8583C0.142516 29.0478 0 29.3391 0 29.6478V81C0 81.5523 0.447716 82 1 82H12.4348L15.729 75.6236H7.10117C6.54888 75.6236 6.10117 75.1759 6.10117 74.6236V32.8516C6.10117 32.5429 6.24368 32.2516 6.48733 32.0621L36.8862 8.4245C37.2472 8.14374 37.7528 8.14374 38.1138 8.4245L68.5127 32.0621C68.7563 32.2516 68.8988 32.5429 68.8988 32.8516V74.6236C68.8988 75.1759 68.4511 75.6236 67.8988 75.6236H32.3587C31.9861 75.6236 31.6444 75.8307 31.4721 76.1611L28.4262 82H74C74.5523 82 75 81.5523 75 81Z" fill="#263B52"/>
<path d="M42.2009 23.4462C46.1929 24.497 49.9103 25.9279 53.4222 27.9303C54.1066 28.3205 54.6107 28.6825 54.6797 29.6466C54.8817 32.4713 57.3525 34.9291 60.0848 34.8052C61.8938 34.7232 63.2187 35.6076 64.6312 36.4473C65.4037 36.9065 65.5954 37.5712 65.1852 38.4277C63.6714 41.5888 62.1606 44.7514 60.6685 47.9237C60.243 48.8282 59.6637 48.9763 58.8544 48.4999C57.7716 47.8627 56.6839 47.2337 55.5858 46.6259C55.0509 46.3299 54.8683 45.8308 54.6711 45.2795C53.6134 42.3223 51.0235 41.4084 48.4162 43.0394C47.4184 43.6637 46.5864 44.4898 45.9208 45.4676C45.3815 46.2597 44.8426 46.3711 44.0385 45.9013C41.565 44.4563 39.0695 43.0523 36.5724 41.6522C35.8171 41.2288 35.3921 40.7337 35.8312 39.7893C36.0017 39.4226 36.0614 38.9957 36.1477 38.5907C36.8245 35.4132 36.3992 34.4812 33.6201 33.0305C33.3977 32.9144 33.1671 32.8147 32.9489 32.6908C28.6755 30.2644 24.4918 30.4728 20.3972 33.1637C19.2734 33.9023 18.1643 34.6654 17.0376 35.4246C16.554 34.8352 16.9149 34.3698 17.0783 33.9277C19.3231 27.857 23.7733 24.4733 29.6519 23.1581C33.763 22.2384 37.95 22.5899 42.2009 23.4462Z" fill="#7199B2"/>
<rect x="11.3109" y="75.6454" width="23.3056" height="6.35458" fill="#263B52"/>
<path d="M33.6568 44.4654C34.1636 43.484 35.3544 43.1284 36.3165 43.6711L42.5762 47.2024C43.5377 47.7448 43.9069 48.9792 43.4012 49.9605L26.8889 82L14.2714 82L33.6568 44.4654Z" fill="#7199B2"/>
</svg>
