<svg width="314" height="83" viewBox="0 0 314 83" fill="none" xmlns="http://www.w3.org/2000/svg">
<g clip-path="url(#clip0_1_157)">
<path d="M75 82V30.6478C75 30.3391 74.8575 30.0478 74.6138 29.8584L38.1138 1.4773C37.7528 1.19654 37.2472 1.19654 36.8862 1.4773L0.386165 29.8583C0.142516 30.0478 0 30.3391 0 30.6478V82C0 82.5523 0.447716 83 1 83H12.4348L15.729 76.6236H7.10117C6.54888 76.6236 6.10117 76.1759 6.10117 75.6236V33.8516C6.10117 33.5429 6.24368 33.2516 6.48733 33.0621L36.8862 9.4245C37.2472 9.14374 37.7528 9.14374 38.1138 9.4245L68.5127 33.0621C68.7563 33.2516 68.8988 33.5429 68.8988 33.8516V75.6236C68.8988 76.1759 68.4511 76.6236 67.8988 76.6236H32.3587C31.9861 76.6236 31.6444 76.8307 31.4721 77.1611L28.4262 83H74C74.5523 83 75 82.5523 75 82Z" fill="#263B52"/>
<path d="M42.2009 24.4462C46.1929 25.497 49.9103 26.9279 53.4222 28.9303C54.1066 29.3205 54.6107 29.6825 54.6797 30.6466C54.8817 33.4713 57.3525 35.9291 60.0848 35.8052C61.8938 35.7232 63.2187 36.6076 64.6312 37.4473C65.4037 37.9065 65.5954 38.5712 65.1852 39.4277C63.6714 42.5888 62.1606 45.7514 60.6685 48.9237C60.243 49.8282 59.6637 49.9763 58.8544 49.4999C57.7716 48.8627 56.6839 48.2337 55.5858 47.6259C55.0509 47.3299 54.8683 46.8308 54.6711 46.2795C53.6134 43.3223 51.0235 42.4084 48.4162 44.0394C47.4184 44.6637 46.5864 45.4898 45.9208 46.4676C45.3815 47.2597 44.8426 47.3711 44.0385 46.9013C41.565 45.4563 39.0695 44.0523 36.5724 42.6522C35.8171 42.2288 35.3921 41.7337 35.8312 40.7893C36.0017 40.4226 36.0614 39.9957 36.1477 39.5907C36.8245 36.4132 36.3992 35.4812 33.6201 34.0305C33.3977 33.9144 33.1671 33.8147 32.9489 33.6908C28.6755 31.2644 24.4918 31.4728 20.3972 34.1637C19.2734 34.9023 18.1643 35.6654 17.0376 36.4246C16.554 35.8352 16.9149 35.3698 17.0783 34.9277C19.3231 28.857 23.7733 25.4733 29.6519 24.1581C33.763 23.2384 37.95 23.5899 42.2009 24.4462Z" fill="#7199B2"/>
<rect x="11.3109" y="76.6454" width="23.3056" height="6.35458" fill="#263B52"/>
<path d="M33.6568 45.4654C34.1636 44.484 35.3544 44.1284 36.3165 44.6711L42.5762 48.2024C43.5377 48.7448 43.9069 49.9792 43.4012 50.9605L26.8889 83L14.2714 83L33.6568 45.4654Z" fill="#7199B2"/>
<path d="M115.164 31.3493V52.1993H111.744V43.0793H101.934V52.1993H98.5142V31.3493H101.934V40.2893H111.744V31.3493H115.164ZM118.527 43.8593C118.527 42.1993 118.867 40.7293 119.547 39.4493C120.247 38.1693 121.187 37.1793 122.367 36.4793C123.567 35.7593 124.887 35.3993 126.327 35.3993C127.627 35.3993 128.757 35.6593 129.717 36.1793C130.697 36.6793 131.477 37.3093 132.057 38.0693V35.6693H135.507V52.1993H132.057V49.7393C131.477 50.5193 130.687 51.1693 129.687 51.6893C128.687 52.2093 127.547 52.4693 126.267 52.4693C124.847 52.4693 123.547 52.1093 122.367 51.3893C121.187 50.6493 120.247 49.6293 119.547 48.3293C118.867 47.0093 118.527 45.5193 118.527 43.8593ZM132.057 43.9193C132.057 42.7793 131.817 41.7893 131.337 40.9493C130.877 40.1093 130.267 39.4693 129.507 39.0293C128.747 38.5893 127.927 38.3693 127.047 38.3693C126.167 38.3693 125.347 38.5893 124.587 39.0293C123.827 39.4493 123.207 40.0793 122.727 40.9193C122.267 41.7393 122.037 42.7193 122.037 43.8593C122.037 44.9993 122.267 45.9993 122.727 46.8593C123.207 47.7193 123.827 48.3793 124.587 48.8393C125.367 49.2793 126.187 49.4993 127.047 49.4993C127.927 49.4993 128.747 49.2793 129.507 48.8393C130.267 48.3993 130.877 47.7593 131.337 46.9193C131.817 46.0593 132.057 45.0593 132.057 43.9193ZM154.969 35.6693V52.1993H151.549V50.2493C151.009 50.9293 150.299 51.4693 149.419 51.8693C148.559 52.2493 147.639 52.4393 146.659 52.4393C145.359 52.4393 144.189 52.1693 143.149 51.6293C142.129 51.0893 141.319 50.2893 140.719 49.2293C140.139 48.1693 139.849 46.8893 139.849 45.3893V35.6693H143.239V44.8793C143.239 46.3593 143.609 47.4993 144.349 48.2993C145.089 49.0793 146.099 49.4693 147.379 49.4693C148.659 49.4693 149.669 49.0793 150.409 48.2993C151.169 47.4993 151.549 46.3593 151.549 44.8793V35.6693H154.969ZM165.481 52.4693C164.181 52.4693 163.011 52.2393 161.971 51.7793C160.951 51.2993 160.141 50.6593 159.541 49.8593C158.941 49.0393 158.621 48.1293 158.581 47.1293H162.121C162.181 47.8293 162.511 48.4193 163.111 48.8993C163.731 49.3593 164.501 49.5893 165.421 49.5893C166.381 49.5893 167.121 49.4093 167.641 49.0493C168.181 48.6693 168.451 48.1893 168.451 47.6093C168.451 46.9893 168.151 46.5293 167.551 46.2293C166.971 45.9293 166.041 45.5993 164.761 45.2393C163.521 44.8993 162.511 44.5693 161.731 44.2493C160.951 43.9293 160.271 43.4393 159.691 42.7793C159.131 42.1193 158.851 41.2493 158.851 40.1693C158.851 39.2893 159.111 38.4893 159.631 37.7693C160.151 37.0293 160.891 36.4493 161.851 36.0293C162.831 35.6093 163.951 35.3993 165.211 35.3993C167.091 35.3993 168.601 35.8793 169.741 36.8393C170.901 37.7793 171.521 39.0693 171.601 40.7093H168.181C168.121 39.9693 167.821 39.3793 167.281 38.9393C166.741 38.4993 166.011 38.2793 165.091 38.2793C164.191 38.2793 163.501 38.4493 163.021 38.7893C162.541 39.1293 162.301 39.5793 162.301 40.1393C162.301 40.5793 162.461 40.9493 162.781 41.2493C163.101 41.5493 163.491 41.7893 163.951 41.9693C164.411 42.1293 165.091 42.3393 165.991 42.5993C167.191 42.9193 168.171 43.2493 168.931 43.5893C169.711 43.9093 170.381 44.3893 170.941 45.0293C171.501 45.6693 171.791 46.5193 171.811 47.5793C171.811 48.5193 171.551 49.3593 171.031 50.0993C170.511 50.8393 169.771 51.4193 168.811 51.8393C167.871 52.2593 166.761 52.4693 165.481 52.4693ZM199.409 52.1993L196.829 49.6193C195.829 50.6193 194.739 51.3693 193.559 51.8693C192.379 52.3493 191.059 52.5893 189.599 52.5893C188.119 52.5893 186.809 52.3293 185.669 51.8093C184.529 51.2893 183.649 50.5493 183.029 49.5893C182.409 48.6093 182.099 47.4793 182.099 46.1993C182.099 44.7593 182.509 43.4793 183.329 42.3593C184.149 41.2193 185.369 40.3193 186.989 39.6593C186.409 38.9593 185.999 38.3093 185.759 37.7093C185.519 37.0893 185.399 36.4093 185.399 35.6693C185.399 34.7493 185.629 33.9293 186.089 33.2093C186.569 32.4893 187.249 31.9193 188.129 31.4993C189.009 31.0793 190.029 30.8693 191.189 30.8693C192.369 30.8693 193.369 31.0993 194.189 31.5593C195.029 31.9993 195.649 32.6093 196.049 33.3893C196.469 34.1693 196.639 35.0393 196.559 35.9993H193.139C193.159 35.2593 192.979 34.6893 192.599 34.2893C192.219 33.8693 191.699 33.6593 191.039 33.6593C190.379 33.6593 189.839 33.8593 189.419 34.2593C189.019 34.6393 188.819 35.1093 188.819 35.6693C188.819 36.2093 188.969 36.7493 189.269 37.2893C189.589 37.8093 190.139 38.4893 190.919 39.3293L196.439 44.8193L198.569 41.3093H202.259L199.559 45.9293L198.809 47.1593L203.879 52.1993H199.409ZM189.599 49.6793C191.479 49.6793 193.139 48.9093 194.579 47.3693L189.059 41.8193C186.699 42.7593 185.519 44.1793 185.519 46.0793C185.519 47.0993 185.899 47.9593 186.659 48.6593C187.419 49.3393 188.399 49.6793 189.599 49.6793ZM229.005 37.3493C228.465 36.3093 227.715 35.5293 226.755 35.0093C225.795 34.4693 224.685 34.1993 223.425 34.1993C222.045 34.1993 220.815 34.5093 219.735 35.1293C218.655 35.7493 217.805 36.6293 217.185 37.7693C216.585 38.9093 216.285 40.2293 216.285 41.7293C216.285 43.2293 216.585 44.5593 217.185 45.7193C217.805 46.8593 218.655 47.7393 219.735 48.3593C220.815 48.9793 222.045 49.2893 223.425 49.2893C225.285 49.2893 226.795 48.7693 227.955 47.7293C229.115 46.6893 229.825 45.2793 230.085 43.4993H222.255V40.7693H233.745V43.4393C233.525 45.0593 232.945 46.5493 232.005 47.9093C231.085 49.2693 229.875 50.3593 228.375 51.1793C226.895 51.9793 225.245 52.3793 223.425 52.3793C221.465 52.3793 219.675 51.9293 218.055 51.0293C216.435 50.1093 215.145 48.8393 214.185 47.2193C213.245 45.5993 212.775 43.7693 212.775 41.7293C212.775 39.6893 213.245 37.8593 214.185 36.2393C215.145 34.6193 216.435 33.3593 218.055 32.4593C219.695 31.5393 221.485 31.0793 223.425 31.0793C225.645 31.0793 227.615 31.6293 229.335 32.7293C231.075 33.8093 232.335 35.3493 233.115 37.3493H229.005ZM235.978 43.8593C235.978 42.1993 236.318 40.7293 236.998 39.4493C237.698 38.1693 238.638 37.1793 239.818 36.4793C241.018 35.7593 242.338 35.3993 243.778 35.3993C245.078 35.3993 246.208 35.6593 247.168 36.1793C248.148 36.6793 248.928 37.3093 249.508 38.0693V35.6693H252.958V52.1993H249.508V49.7393C248.928 50.5193 248.138 51.1693 247.138 51.6893C246.138 52.2093 244.998 52.4693 243.718 52.4693C242.298 52.4693 240.998 52.1093 239.818 51.3893C238.638 50.6493 237.698 49.6293 236.998 48.3293C236.318 47.0093 235.978 45.5193 235.978 43.8593ZM249.508 43.9193C249.508 42.7793 249.268 41.7893 248.788 40.9493C248.328 40.1093 247.718 39.4693 246.958 39.0293C246.198 38.5893 245.378 38.3693 244.498 38.3693C243.618 38.3693 242.798 38.5893 242.038 39.0293C241.278 39.4493 240.658 40.0793 240.178 40.9193C239.718 41.7393 239.488 42.7193 239.488 43.8593C239.488 44.9993 239.718 45.9993 240.178 46.8593C240.658 47.7193 241.278 48.3793 242.038 48.8393C242.818 49.2793 243.638 49.4993 244.498 49.4993C245.378 49.4993 246.198 49.2793 246.958 48.8393C247.718 48.3993 248.328 47.7593 248.788 46.9193C249.268 46.0593 249.508 45.0593 249.508 43.9193ZM260.87 38.0693C261.37 37.2293 262.03 36.5793 262.85 36.1193C263.69 35.6393 264.68 35.3993 265.82 35.3993V38.9393H264.95C263.61 38.9393 262.59 39.2793 261.89 39.9593C261.21 40.6393 260.87 41.8193 260.87 43.4993V52.1993H257.45V35.6693H260.87V38.0693ZM272.953 38.4593V47.6093C272.953 48.2293 273.093 48.6793 273.373 48.9593C273.673 49.2193 274.173 49.3493 274.873 49.3493H276.973V52.1993H274.273C272.733 52.1993 271.553 51.8393 270.733 51.1193C269.913 50.3993 269.503 49.2293 269.503 47.6093V38.4593H267.553V35.6693H269.503V31.5593H272.953V35.6693H276.973V38.4593H272.953ZM295.275 43.5293C295.275 44.1493 295.235 44.7093 295.155 45.2093H282.525C282.625 46.5293 283.115 47.5893 283.995 48.3893C284.875 49.1893 285.955 49.5893 287.235 49.5893C289.075 49.5893 290.375 48.8193 291.135 47.2793H294.825C294.325 48.7993 293.415 50.0493 292.095 51.0293C290.795 51.9893 289.175 52.4693 287.235 52.4693C285.655 52.4693 284.235 52.1193 282.975 51.4193C281.735 50.6993 280.755 49.6993 280.035 48.4193C279.335 47.1193 278.985 45.6193 278.985 43.9193C278.985 42.2193 279.325 40.7293 280.005 39.4493C280.705 38.1493 281.675 37.1493 282.915 36.4493C284.175 35.7493 285.615 35.3993 287.235 35.3993C288.795 35.3993 290.185 35.7393 291.405 36.4193C292.625 37.0993 293.575 38.0593 294.255 39.2993C294.935 40.5193 295.275 41.9293 295.275 43.5293ZM291.705 42.4493C291.685 41.1893 291.235 40.1793 290.355 39.4193C289.475 38.6593 288.385 38.2793 287.085 38.2793C285.905 38.2793 284.895 38.6593 284.055 39.4193C283.215 40.1593 282.715 41.1693 282.555 42.4493H291.705ZM306.981 35.3993C308.281 35.3993 309.441 35.6693 310.461 36.2093C311.501 36.7493 312.311 37.5493 312.891 38.6093C313.471 39.6693 313.761 40.9493 313.761 42.4493V52.1993H310.371V42.9593C310.371 41.4793 310.001 40.3493 309.261 39.5693C308.521 38.7693 307.511 38.3693 306.231 38.3693C304.951 38.3693 303.931 38.7693 303.171 39.5693C302.431 40.3493 302.061 41.4793 302.061 42.9593V52.1993H298.641V35.6693H302.061V37.5593C302.621 36.8793 303.331 36.3493 304.191 35.9693C305.071 35.5893 306.001 35.3993 306.981 35.3993Z" fill="black"/>
<path d="M111.466 63.304L108.638 73.062H107.21L104.942 65.208L102.59 73.062L101.176 73.076L98.4459 63.304H99.8039L101.932 71.578L104.284 63.304H105.712L107.952 71.55L110.094 63.304H111.466ZM115.604 69.198C115.604 68.414 115.763 67.728 116.08 67.14C116.397 66.5426 116.831 66.0806 117.382 65.754C117.942 65.4273 118.563 65.264 119.244 65.264C119.916 65.264 120.499 65.4086 120.994 65.698C121.489 65.9873 121.857 66.3513 122.1 66.79V65.39H123.388V73.062H122.1V71.634C121.848 72.082 121.47 72.4553 120.966 72.754C120.471 73.0433 119.893 73.188 119.23 73.188C118.549 73.188 117.933 73.02 117.382 72.684C116.831 72.348 116.397 71.8766 116.08 71.27C115.763 70.6633 115.604 69.9726 115.604 69.198ZM122.1 69.212C122.1 68.6333 121.983 68.1293 121.75 67.7C121.517 67.2706 121.199 66.944 120.798 66.72C120.406 66.4866 119.972 66.37 119.496 66.37C119.02 66.37 118.586 66.482 118.194 66.706C117.802 66.93 117.489 67.2566 117.256 67.686C117.023 68.1153 116.906 68.6193 116.906 69.198C116.906 69.786 117.023 70.2993 117.256 70.738C117.489 71.1673 117.802 71.4986 118.194 71.732C118.586 71.956 119.02 72.068 119.496 72.068C119.972 72.068 120.406 71.956 120.798 71.732C121.199 71.4986 121.517 71.1673 121.75 70.738C121.983 70.2993 122.1 69.7906 122.1 69.212ZM129.419 64.144C129.176 64.144 128.971 64.06 128.803 63.892C128.635 63.724 128.551 63.5186 128.551 63.276C128.551 63.0333 128.635 62.828 128.803 62.66C128.971 62.492 129.176 62.408 129.419 62.408C129.652 62.408 129.848 62.492 130.007 62.66C130.175 62.828 130.259 63.0333 130.259 63.276C130.259 63.5186 130.175 63.724 130.007 63.892C129.848 64.06 129.652 64.144 129.419 64.144ZM130.035 65.39V73.062H128.761V65.39H130.035ZM136.7 66.818C136.962 66.3606 137.344 65.9873 137.848 65.698C138.352 65.4086 138.926 65.264 139.57 65.264C140.261 65.264 140.882 65.4273 141.432 65.754C141.983 66.0806 142.417 66.5426 142.734 67.14C143.052 67.728 143.21 68.414 143.21 69.198C143.21 69.9726 143.052 70.6633 142.734 71.27C142.417 71.8766 141.978 72.348 141.418 72.684C140.868 73.02 140.252 73.188 139.57 73.188C138.908 73.188 138.324 73.0433 137.82 72.754C137.326 72.4646 136.952 72.096 136.7 71.648V73.062H135.426V62.702H136.7V66.818ZM141.908 69.198C141.908 68.6193 141.792 68.1153 141.558 67.686C141.325 67.2566 141.008 66.93 140.606 66.706C140.214 66.482 139.78 66.37 139.304 66.37C138.838 66.37 138.404 66.4866 138.002 66.72C137.61 66.944 137.293 67.2753 137.05 67.714C136.817 68.1433 136.7 68.6426 136.7 69.212C136.7 69.7906 136.817 70.2993 137.05 70.738C137.293 71.1673 137.61 71.4986 138.002 71.732C138.404 71.956 138.838 72.068 139.304 72.068C139.78 72.068 140.214 71.956 140.606 71.732C141.008 71.4986 141.325 71.1673 141.558 70.738C141.792 70.2993 141.908 69.786 141.908 69.198ZM149.381 62.702V73.062H148.107V62.702H149.381ZM155.431 64.144C155.188 64.144 154.983 64.06 154.815 63.892C154.647 63.724 154.563 63.5186 154.563 63.276C154.563 63.0333 154.647 62.828 154.815 62.66C154.983 62.492 155.188 62.408 155.431 62.408C155.664 62.408 155.86 62.492 156.019 62.66C156.187 62.828 156.271 63.0333 156.271 63.276C156.271 63.5186 156.187 63.724 156.019 63.892C155.86 64.06 155.664 64.144 155.431 64.144ZM156.047 65.39V73.062H154.773V65.39H156.047ZM165.176 65.25C166.109 65.25 166.865 65.5346 167.444 66.104C168.023 66.664 168.312 67.476 168.312 68.54V73.062H167.052V68.722C167.052 67.9566 166.861 67.3733 166.478 66.972C166.095 66.5613 165.573 66.356 164.91 66.356C164.238 66.356 163.701 66.566 163.3 66.986C162.908 67.406 162.712 68.0173 162.712 68.82V73.062H161.438V65.39H162.712V66.482C162.964 66.09 163.305 65.7866 163.734 65.572C164.173 65.3573 164.653 65.25 165.176 65.25ZM176.777 65.264C177.44 65.264 178.018 65.4086 178.513 65.698C179.017 65.9873 179.39 66.3513 179.633 66.79V65.39H180.921V73.23C180.921 73.93 180.772 74.5506 180.473 75.092C180.174 75.6426 179.745 76.072 179.185 76.38C178.634 76.688 177.99 76.842 177.253 76.842C176.245 76.842 175.405 76.604 174.733 76.128C174.061 75.652 173.664 75.0033 173.543 74.182H174.803C174.943 74.6486 175.232 75.022 175.671 75.302C176.11 75.5913 176.637 75.736 177.253 75.736C177.953 75.736 178.522 75.5166 178.961 75.078C179.409 74.6393 179.633 74.0233 179.633 73.23V71.62C179.381 72.068 179.008 72.4413 178.513 72.74C178.018 73.0386 177.44 73.188 176.777 73.188C176.096 73.188 175.475 73.02 174.915 72.684C174.364 72.348 173.93 71.8766 173.613 71.27C173.296 70.6633 173.137 69.9726 173.137 69.198C173.137 68.414 173.296 67.728 173.613 67.14C173.93 66.5426 174.364 66.0806 174.915 65.754C175.475 65.4273 176.096 65.264 176.777 65.264ZM179.633 69.212C179.633 68.6333 179.516 68.1293 179.283 67.7C179.05 67.2706 178.732 66.944 178.331 66.72C177.939 66.4866 177.505 66.37 177.029 66.37C176.553 66.37 176.119 66.482 175.727 66.706C175.335 66.93 175.022 67.2566 174.789 67.686C174.556 68.1153 174.439 68.6193 174.439 69.198C174.439 69.786 174.556 70.2993 174.789 70.738C175.022 71.1673 175.335 71.4986 175.727 71.732C176.119 71.956 176.553 72.068 177.029 72.068C177.505 72.068 177.939 71.956 178.331 71.732C178.732 71.4986 179.05 71.1673 179.283 70.738C179.516 70.2993 179.633 69.7906 179.633 69.212ZM193.294 68.932C193.294 69.1746 193.28 69.4313 193.252 69.702H187.12C187.167 70.458 187.423 71.0506 187.89 71.48C188.366 71.9 188.94 72.11 189.612 72.11C190.163 72.11 190.62 71.984 190.984 71.732C191.357 71.4706 191.619 71.1253 191.768 70.696H193.14C192.935 71.4333 192.524 72.0353 191.908 72.502C191.292 72.9593 190.527 73.188 189.612 73.188C188.884 73.188 188.231 73.0246 187.652 72.698C187.083 72.3713 186.635 71.9093 186.308 71.312C185.981 70.7053 185.818 70.0053 185.818 69.212C185.818 68.4186 185.977 67.7233 186.294 67.126C186.611 66.5286 187.055 66.0713 187.624 65.754C188.203 65.4273 188.865 65.264 189.612 65.264C190.34 65.264 190.984 65.4226 191.544 65.74C192.104 66.0573 192.533 66.496 192.832 67.056C193.14 67.6066 193.294 68.232 193.294 68.932ZM191.978 68.666C191.978 68.1806 191.871 67.7653 191.656 67.42C191.441 67.0653 191.147 66.7993 190.774 66.622C190.41 66.4353 190.004 66.342 189.556 66.342C188.912 66.342 188.361 66.5473 187.904 66.958C187.456 67.3686 187.199 67.938 187.134 68.666H191.978ZM201.934 65.25C202.867 65.25 203.623 65.5346 204.202 66.104C204.78 66.664 205.07 67.476 205.07 68.54V73.062H203.81V68.722C203.81 67.9566 203.618 67.3733 203.236 66.972C202.853 66.5613 202.33 66.356 201.668 66.356C200.996 66.356 200.459 66.566 200.058 66.986C199.666 67.406 199.47 68.0173 199.47 68.82V73.062H198.196V65.39H199.47V66.482C199.722 66.09 200.062 65.7866 200.492 65.572C200.93 65.3573 201.411 65.25 201.934 65.25Z" fill="black"/>
</g>
<defs>
<clipPath id="clip0_1_157">
<rect width="314" height="83" fill="white"/>
</clipPath>
</defs>
</svg>
